<?xml version="1.0" standalone="no"?>
<!DOCTYPE svg PUBLIC "-//W3C//DTD SVG 20010904//EN"
 "http://www.w3.org/TR/2001/REC-SVG-20010904/DTD/svg10.dtd">
<svg version="1.0" xmlns="http://www.w3.org/2000/svg"
 width="834.000000pt" height="834.000000pt" viewBox="0 0 834.000000 834.000000"
 preserveAspectRatio="xMidYMid meet">
<metadata>
Created by potrace 1.14, written by Peter Selinger 2001-2017
</metadata>
<g transform="translate(0.000000,834.000000) scale(0.100000,-0.100000)"
fill="#000000" stroke="none">
<path d="M4105 8316 c-36 -18 -59 -20 -215 -19 -157 0 -237 3 -515 18 l-80 4
-140 -63 c-148 -68 -186 -81 -250 -92 -80 -14 -226 -7 -330 16 -113 25 -228
41 -293 41 -80 1 -122 -27 -325 -213 -127 -117 -237 -208 -251 -208 -3 0 -24
-13 -48 -29 -113 -76 -386 -184 -558 -221 -92 -19 -251 -65 -299 -87 l-55 -24
25 -24 c13 -13 65 -45 114 -70 145 -75 214 -139 282 -262 67 -119 101 -277 77
-356 -5 -16 -7 -16 -32 2 -15 10 -61 54 -102 96 -199 205 -202 207 -299 207
-99 0 -141 -12 -276 -80 -104 -52 -146 -66 -177 -59 -46 12 -44 25 33 179 14
26 -14 47 -53 41 -80 -12 -162 -90 -173 -165 -7 -43 11 -88 63 -161 35 -49 57
-123 41 -133 -5 -3 -7 -9 -4 -13 2 -5 -23 -38 -56 -74 -33 -37 -64 -80 -69
-97 -8 -28 -6 -33 23 -50 46 -28 112 -29 175 -3 20 8 83 47 138 85 132 91 161
101 223 78 67 -25 146 -20 178 12 26 26 36 89 17 108 -5 5 -32 12 -59 15 -88
10 -105 64 -35 112 58 40 117 19 203 -71 67 -69 85 -108 82 -176 -7 -148 -121
-332 -195 -315 -14 3 -34 18 -45 32 -72 95 -137 143 -195 143 -25 0 -30 -4
-30 -25 0 -15 6 -38 14 -53 7 -15 21 -49 30 -75 16 -47 15 -50 -4 -77 -38 -53
-88 -57 -435 -34 -154 10 -140 12 -138 -16 6 -81 14 -170 18 -205 5 -41 8 -72
20 -185 3 -36 8 -76 11 -90 3 -14 7 -45 9 -70 6 -50 13 -99 21 -145 3 -16 7
-43 9 -60 2 -16 4 -30 5 -30 1 0 3 -16 5 -35 2 -19 6 -48 10 -65 3 -16 12 -68
20 -115 17 -94 25 -134 56 -260 12 -47 23 -96 26 -110 7 -35 8 -38 27 -105 51
-173 127 -396 161 -472 8 -18 22 -50 31 -70 9 -21 34 -75 55 -119 22 -45 39
-86 39 -92 0 -6 3 -12 8 -14 4 -1 18 -23 31 -48 37 -72 71 -133 91 -165 11
-16 27 -43 36 -60 46 -82 158 -235 251 -344 46 -53 364 -374 413 -416 81 -70
189 -155 197 -155 4 0 20 -11 35 -25 15 -14 29 -25 32 -25 8 0 95 -60 101 -69
2 -5 -18 -46 -45 -91 -28 -46 -48 -85 -46 -88 3 -2 1 -15 -4 -28 -12 -32 -3
-54 24 -54 24 0 52 17 126 78 59 48 85 52 120 17 45 -44 49 -49 123 -185 106
-192 237 -330 322 -338 111 -11 175 -70 188 -175 8 -58 25 -91 69 -138 44 -47
96 -77 140 -82 56 -6 60 3 28 63 -84 160 -94 199 -61 234 20 21 51 32 116 41
81 12 132 20 177 28 28 6 30 3 62 -93 30 -93 70 -149 130 -181 42 -22 47 -22
61 -8 15 14 13 23 -24 92 -50 95 -63 140 -47 162 10 14 16 13 56 -16 25 -18
47 -35 50 -39 3 -4 20 -15 38 -26 46 -26 57 -7 30 53 -18 40 -18 47 -5 60 28
28 115 19 202 -21 122 -57 145 -69 145 -78 0 -5 6 -8 13 -8 19 0 115 -88 132
-121 8 -15 15 -40 15 -55 0 -33 -59 -94 -92 -94 -12 0 -36 -8 -53 -19 -47 -29
-128 -114 -152 -159 -21 -40 -21 -44 -7 -79 9 -20 52 -73 96 -117 112 -113
110 -109 87 -181 -35 -110 -21 -147 48 -125 21 7 43 15 48 19 31 18 93 16 114
-3 20 -19 22 -76 6 -240 -6 -68 -5 -78 8 -73 8 3 36 9 62 13 l48 7 -6 -44 c-3
-24 -8 -53 -10 -65 -23 -99 -27 -346 -6 -390 19 -39 59 -41 69 -3 4 14 6 106
5 205 -1 98 2 190 7 204 5 13 29 45 53 71 l44 48 -15 48 c-9 26 -17 55 -18 63
-1 9 -5 20 -8 25 -3 6 -5 33 -4 62 2 93 53 118 157 78 95 -38 99 -34 93 86 -7
118 -8 115 106 231 98 99 108 124 73 170 -15 18 -48 51 -75 73 -27 22 -55 45
-62 51 -21 19 -74 44 -95 44 -11 0 -32 11 -47 23 -54 47 -25 118 89 223 33 30
81 68 106 84 25 16 52 35 59 41 40 34 180 64 201 44 5 -5 3 -93 -3 -120 -2
-11 -5 -24 -6 -30 -1 -5 -2 -20 -1 -32 1 -20 4 -18 40 15 98 94 137 116 159
89 19 -23 -7 -107 -43 -144 -27 -26 -57 -84 -51 -98 3 -9 18 -15 34 -15 59 0
163 102 196 191 25 69 89 119 151 119 13 0 51 -14 84 -31 80 -41 117 -97 107
-163 -5 -30 -16 -52 -37 -72 -39 -37 -70 -96 -59 -113 17 -29 141 15 217 76
52 42 63 74 58 165 -2 39 1 80 6 90 12 23 72 53 123 62 60 11 121 44 177 94
53 48 139 153 139 171 0 6 3 11 8 11 4 0 29 42 56 94 98 188 160 219 263 131
23 -19 46 -35 52 -35 6 0 11 -3 11 -7 0 -5 14 -16 30 -25 26 -15 32 -15 44 -2
11 10 12 22 6 44 -9 32 -43 92 -64 113 -7 6 -24 30 -39 52 l-27 40 31 28 c18
15 35 27 40 27 7 0 67 35 123 72 21 14 79 63 108 91 10 9 20 17 22 17 5 0 57
49 191 179 117 115 253 261 321 346 27 33 51 62 54 65 22 20 126 184 210 328
54 95 199 385 204 412 1 3 23 57 50 120 45 106 181 501 190 553 3 12 6 24 7
27 1 3 3 10 4 15 1 6 7 30 14 55 7 25 15 54 17 65 4 21 32 179 40 228 2 15 6
39 9 55 8 52 24 157 30 202 3 25 8 56 10 70 2 14 7 52 11 85 3 33 8 67 9 75 2
8 6 44 10 80 4 36 8 72 10 81 10 51 20 244 16 296 -1 13 -11 13 -198 -2 -155
-13 -280 -9 -307 9 -35 22 -33 44 11 131 32 65 35 77 25 99 -14 31 -58 35
-115 11 -37 -15 -107 -80 -107 -99 0 -6 -13 -26 -29 -45 -54 -65 -109 -37
-166 84 -66 138 -83 251 -50 316 60 116 174 188 251 159 36 -14 64 -47 64 -76
0 -23 -19 -33 -122 -64 -20 -6 -39 -18 -42 -26 -10 -26 24 -84 64 -110 38 -26
60 -30 95 -20 11 3 46 11 77 18 74 16 109 4 198 -67 113 -89 138 -99 240 -97
55 1 95 15 104 37 8 22 -32 87 -93 153 -81 88 -89 105 -68 145 10 18 40 57 67
87 84 93 88 140 18 216 -66 71 -127 94 -147 55 -12 -22 -9 -39 18 -110 20 -50
21 -55 5 -72 -30 -34 -102 -15 -190 48 -71 52 -144 75 -249 79 -82 3 -108 0
-141 -15 -105 -48 -197 -162 -240 -297 -30 -93 -42 -109 -79 -100 -91 23 -76
232 31 455 34 70 61 108 107 155 65 64 104 87 224 131 101 37 107 67 23 120
-19 12 -55 29 -80 38 -78 27 -143 53 -205 82 -33 15 -60 26 -60 24 0 -2 -14 6
-32 19 -17 12 -37 22 -45 22 -8 0 -18 4 -24 9 -5 4 -52 31 -104 58 -52 28
-122 65 -155 83 -68 37 -357 184 -365 185 -3 1 -27 11 -55 24 -247 113 -442
145 -603 99 -37 -11 -89 -26 -117 -34 -77 -22 -153 -19 -242 12 -43 14 -82 30
-88 34 -5 4 -48 21 -95 39 -47 18 -94 37 -105 41 -27 11 -142 41 -185 49 -48
8 -316 7 -365 -2 -170 -30 -221 -26 -315 22 -98 50 -114 52 -165 27z m1781
-265 c7 -1 25 -15 42 -32 25 -26 29 -35 22 -62 -17 -72 -47 -99 -102 -93 -18
2 -41 4 -51 5 -56 3 -87 94 -48 142 20 25 73 47 105 43 12 -1 26 -3 32 -3z
m-3335 -30 c26 -21 37 -93 19 -127 -20 -36 -109 -52 -152 -26 -58 34 -62 139
-6 161 39 15 116 11 139 -8z m-174 -385 c142 -27 246 -143 314 -351 13 -38 26
-74 30 -79 4 -5 67 -9 141 -11 152 -2 229 -15 319 -51 150 -61 206 -134 234
-306 8 -54 9 -95 2 -140 -17 -111 -15 -133 11 -136 23 -4 106 24 170 57 108
55 265 81 369 62 70 -14 159 -56 193 -92 25 -26 108 -64 165 -75 6 -1 12 -3
15 -4 3 -1 22 -3 42 -6 34 -4 38 -2 37 18 -1 29 10 233 15 273 13 114 87 241
197 338 66 58 225 142 308 161 36 8 123 15 213 16 84 1 193 2 241 4 l89 2 -6
-39 c-4 -22 -16 -65 -27 -96 -11 -31 -23 -76 -27 -101 -9 -59 -9 -476 0 -485
13 -14 66 -14 77 -2 5 7 13 28 16 47 9 53 16 72 34 91 17 19 78 46 96 44 52
-6 91 -58 81 -108 -10 -48 -33 -67 -83 -67 -36 0 -43 -3 -43 -20 0 -30 60 -87
106 -101 l41 -13 -14 -34 c-8 -19 -15 -47 -15 -61 -1 -36 98 -232 128 -254 24
-18 25 -18 57 16 39 42 51 58 59 77 4 8 51 87 106 175 l98 160 50 -3 c187 -10
203 -9 241 8 52 23 112 87 119 128 9 49 -6 56 -44 21 -18 -17 -39 -28 -47 -26
-7 3 -25 26 -39 50 -32 54 -26 78 32 125 51 40 85 53 125 48 48 -6 61 -14 83
-49 16 -27 19 -51 19 -157 l0 -125 32 -15 c17 -8 36 -23 42 -33 31 -49 -1
-177 -59 -232 -57 -54 -142 -64 -188 -22 -20 18 -23 29 -19 60 6 47 29 73 71
83 45 11 49 11 68 2 22 -11 32 6 13 22 -50 42 -195 -34 -211 -110 -11 -52 -52
-128 -139 -260 -113 -171 -105 -158 -163 -270 -48 -95 -90 -171 -141 -259 -55
-95 -57 -108 -33 -218 11 -49 -8 -118 -48 -176 -29 -42 -54 -58 -99 -64 l-34
-5 21 26 c17 22 19 33 11 59 -22 80 -118 112 -219 74 -34 -12 -117 -36 -143
-41 -27 -5 -28 -3 -23 27 2 18 9 48 15 67 23 75 28 131 18 240 -4 41 -3 80 1
87 4 7 29 14 54 17 58 5 97 28 128 74 14 21 28 39 31 42 13 10 99 149 109 175
11 29 -7 70 -113 255 -125 218 -151 245 -193 199 -14 -15 -27 -20 -50 -16 -19
3 -31 1 -32 -6 -1 -7 -4 -196 -6 -422 -2 -225 -7 -435 -10 -465 -8 -65 -26
-83 -41 -40 -28 84 -180 194 -351 257 l-105 38 6 86 c3 47 8 122 11 165 10
133 10 188 1 217 -9 27 -10 28 -36 11 -14 -10 -37 -30 -50 -46 -33 -39 -51
-35 -85 17 -31 50 -82 105 -97 105 -34 0 -57 -112 -63 -301 -5 -152 35 -246
123 -296 95 -53 120 -73 115 -87 -7 -18 -61 -44 -108 -52 -120 -19 -215 -104
-210 -189 3 -59 4 -65 15 -65 6 0 33 23 60 51 45 46 52 50 82 43 31 -6 116
-58 118 -72 15 -84 -15 -153 -84 -188 -15 -8 -32 -12 -37 -9 -5 3 -11 1 -15
-5 -4 -6 -11 -7 -17 -4 -6 4 -25 8 -43 9 -44 2 -104 32 -133 64 -64 71 -117
173 -128 251 -17 111 -20 118 -62 136 -112 47 -155 189 -71 235 62 33 120 16
151 -45 l21 -41 8 30 c5 17 11 53 14 80 3 28 7 70 10 95 11 100 25 304 28 400
l2 55 -61 32 c-33 18 -74 35 -92 38 -31 5 -32 4 -33 -27 0 -18 -2 -42 -4 -53
-2 -11 -7 -78 -11 -150 -3 -71 -8 -148 -9 -170 -2 -22 -3 -54 -4 -72 -1 -26
-9 -36 -53 -64 -53 -33 -158 -82 -158 -73 0 3 -8 0 -18 -5 -10 -5 -51 -11 -90
-12 -40 -1 -80 -8 -90 -15 -27 -19 -21 -98 13 -169 15 -33 29 -64 30 -70 1 -5
-13 -23 -32 -40 -89 -77 -138 -133 -162 -184 -14 -31 -26 -59 -26 -63 -1 -26
-18 -9 -53 54 -50 91 -152 204 -192 213 -42 9 -44 18 -11 59 28 34 33 48 46
116 16 79 25 579 12 631 -7 28 -39 69 -54 69 -5 0 -15 -11 -21 -25 -10 -21 -9
-32 3 -55 20 -39 19 -54 -7 -85 -29 -32 -81 -39 -104 -14 -38 43 -145 -3 -206
-88 -24 -33 -61 -65 -114 -98 -87 -54 -90 -57 -121 -100 -46 -66 -40 -141 24
-266 18 -36 36 -80 39 -97 5 -25 3 -31 -17 -37 -35 -11 -118 -67 -159 -106
-76 -73 -131 -178 -132 -252 0 -20 -4 -39 -8 -42 -4 -2 -33 44 -65 103 -159
292 -234 353 -325 265 -64 -64 -75 -162 -15 -147 30 7 75 -34 75 -69 0 -66
-73 -125 -131 -105 -27 9 -63 44 -71 69 -2 5 -18 12 -35 14 -123 15 -179 156
-96 240 33 32 65 27 104 -17 16 -18 29 -28 30 -23 7 86 97 206 182 245 50 23
66 46 67 99 0 38 -5 49 -39 81 -22 21 -63 52 -93 69 -70 41 -102 71 -122 113
-17 35 -72 74 -117 82 -13 3 -26 5 -29 6 -9 4 -54 2 -102 -3 -26 -3 -50 -2
-53 3 -3 5 -7 40 -9 77 -6 95 -15 154 -38 258 -48 217 -18 390 83 478 73 64
79 68 194 114 83 32 151 41 278 33 26 -2 50 -1 53 2 11 11 -8 77 -32 109 -24
33 -26 32 -38 -22 -8 -35 -44 -50 -82 -34 -64 27 -77 80 -39 162 18 38 28 81
31 123 5 82 17 112 55 134 63 37 127 47 206 32z m-1084 -528 c41 -42 85 -103
89 -123 2 -14 -3 -21 -19 -23 -16 -2 -24 4 -32 30 -6 18 -26 45 -45 60 -21 17
-33 34 -31 45 2 10 4 21 4 26 2 12 11 8 34 -15z m5731 -57 c-1 -41 -18 -66
-37 -54 -9 5 -5 58 8 86 13 31 30 12 29 -32z m-73 -158 c13 -33 17 -56 24
-138 2 -33 7 -73 11 -90 6 -31 61 -146 73 -155 4 -3 22 -27 41 -55 19 -27 36
-52 40 -55 10 -8 64 -101 85 -145 24 -52 29 -114 10 -121 -32 -13 -143 85
-212 186 -52 76 -113 210 -128 281 -27 129 -24 255 9 308 13 20 36 11 47 -16z
m-5545 -260 c3 -24 -1 -68 -10 -105 -18 -70 -91 -228 -106 -228 -6 0 -10 -5
-10 -11 0 -29 -134 -129 -173 -129 -50 0 2 139 103 275 50 68 101 159 104 187
3 27 24 70 40 80 18 12 46 -25 52 -69z m-396 -535 c0 -54 -86 -114 -190 -132
-14 -2 -36 -7 -50 -10 -32 -7 -74 -14 -130 -22 -25 -3 -56 -8 -70 -10 -14 -3
-41 -8 -60 -11 -39 -7 -105 -37 -115 -53 -18 -29 -21 -82 -11 -185 7 -73 9
-86 21 -175 4 -30 8 -68 10 -85 1 -16 9 -68 18 -115 9 -47 18 -94 20 -105 2
-11 7 -31 10 -45 3 -14 15 -68 27 -120 12 -52 26 -105 32 -117 6 -11 7 -26 4
-32 -4 -6 -3 -11 1 -11 5 0 9 -8 10 -17 2 -29 92 -299 140 -423 136 -349 319
-676 504 -904 24 -28 124 -132 224 -231 234 -231 278 -271 415 -375 47 -36 87
-68 90 -71 8 -9 218 -139 242 -149 13 -6 57 -28 98 -51 93 -50 337 -159 356
-159 8 0 14 -5 14 -12 0 -6 3 -9 6 -5 4 3 23 -1 43 -9 40 -18 227 -83 252 -89
9 -2 47 -12 85 -24 81 -23 303 -77 354 -85 19 -3 46 -8 60 -11 14 -3 40 -7 59
-10 18 -2 50 -7 70 -9 44 -7 104 -13 196 -21 39 -4 77 -8 85 -10 8 -3 31 -7
50 -10 43 -8 60 -21 60 -50 0 -40 -35 -60 -104 -60 -59 0 -148 9 -211 20 -16
3 -55 10 -85 15 -91 15 -98 17 -283 55 -98 20 -215 48 -260 61 -45 14 -93 28
-106 30 -13 3 -32 9 -43 15 -10 5 -18 8 -18 5 0 -2 -30 4 -67 15 -38 11 -78
22 -90 25 -12 2 -62 18 -110 35 -48 17 -92 32 -98 33 -19 6 -51 19 -153 67
-56 26 -104 47 -106 46 -2 -1 -12 5 -22 13 -11 8 -28 20 -39 26 -128 69 -237
140 -364 234 -195 144 -403 333 -559 505 -88 98 -91 102 -147 175 -28 36 -53
67 -56 70 -3 3 -36 48 -73 100 -37 52 -74 103 -81 113 -8 9 -12 17 -10 17 3 0
-3 10 -15 22 -11 12 -20 27 -20 34 0 7 -3 14 -8 16 -26 11 -160 275 -227 448
-38 96 -130 371 -140 412 -2 13 -20 82 -40 153 -19 72 -48 195 -65 275 -25
127 -33 171 -46 265 -1 11 -3 20 -4 20 -1 0 -3 23 -6 50 -3 28 -7 61 -9 75 -7
40 -18 255 -19 384 -1 99 2 119 14 121 8 1 55 6 104 10 49 4 98 8 110 10 11 2
41 6 66 9 88 12 180 33 230 54 19 8 67 20 105 27 89 15 125 2 125 -47z m6470
36 c19 -3 44 -7 55 -9 11 -1 31 -5 45 -9 14 -3 41 -8 60 -11 19 -3 78 -14 130
-25 52 -10 118 -22 145 -25 28 -3 61 -7 75 -9 75 -9 104 -69 104 -216 1 -94
-7 -198 -18 -255 -2 -11 -7 -40 -11 -65 -4 -25 -9 -54 -12 -65 -2 -11 -6 -31
-8 -45 -10 -64 -110 -481 -122 -510 -3 -8 -7 -24 -9 -35 -4 -32 -49 -182 -84
-280 -17 -49 -32 -95 -34 -102 -1 -7 -5 -16 -9 -19 -4 -4 -7 -16 -7 -26 0 -10
-4 -18 -8 -18 -5 0 -9 -6 -9 -13 0 -31 -148 -336 -228 -467 -60 -99 -145 -231
-155 -240 -3 -3 -39 -50 -80 -105 -41 -55 -79 -105 -85 -111 -5 -7 -35 -41
-65 -75 -80 -93 -341 -355 -417 -419 -36 -30 -71 -59 -77 -65 -6 -5 -27 -22
-48 -37 -20 -15 -42 -34 -50 -41 -7 -8 -31 -26 -53 -40 -22 -15 -68 -47 -103
-72 -34 -25 -67 -45 -72 -45 -6 0 -10 -4 -10 -10 0 -5 -4 -10 -9 -10 -9 0
-109 -58 -121 -70 -21 -21 -382 -198 -486 -238 -27 -10 -58 -22 -69 -27 -11
-4 -24 -9 -30 -11 -5 -1 -37 -12 -70 -24 -61 -22 -203 -67 -240 -76 -11 -3
-27 -7 -35 -9 -8 -2 -17 -4 -20 -5 -3 -1 -8 -2 -12 -1 -4 0 -20 -4 -35 -10
-15 -6 -39 -12 -53 -14 -14 -2 -34 -6 -45 -9 -96 -22 -118 -26 -123 -22 -2 3
-12 1 -21 -3 -9 -5 -41 -12 -71 -16 -30 -4 -57 -8 -60 -10 -3 -1 -36 -6 -75
-10 -38 -4 -83 -9 -100 -10 -16 -2 -73 -7 -125 -10 -52 -4 -97 -7 -100 -8 -12
-2 -50 15 -50 23 0 25 26 59 55 73 30 14 236 65 295 73 14 1 39 5 55 8 17 3
46 8 65 11 19 4 73 13 120 21 47 9 101 18 120 20 19 3 46 7 60 9 14 2 25 4 25
5 0 2 21 6 66 14 20 3 42 8 50 10 8 3 25 8 39 10 39 8 61 13 110 26 25 7 52
13 60 15 78 16 381 154 523 238 43 26 83 47 88 47 5 0 9 5 9 10 0 6 6 10 13
10 7 0 23 9 35 20 12 11 24 20 27 20 5 0 148 94 170 112 6 5 60 45 120 90 61
45 115 87 121 92 7 6 31 27 54 45 23 19 48 40 54 45 6 6 41 37 77 68 74 64
188 180 244 248 20 25 50 61 67 80 89 104 269 367 370 540 104 177 242 488
263 588 2 9 8 29 14 45 6 15 13 38 16 50 3 12 23 90 45 172 22 83 42 164 45
180 3 17 8 37 10 45 5 17 9 39 30 150 8 41 17 86 19 100 3 14 8 48 11 75 3 28
8 64 11 80 3 17 7 88 9 159 3 115 2 133 -15 157 -22 30 -82 50 -195 65 -22 3
-51 8 -65 11 -14 3 -36 7 -50 9 -37 4 -199 52 -248 74 -50 22 -61 43 -41 79
26 46 55 53 159 35z m-4652 -917 c5 -12 15 -36 22 -54 10 -27 23 -39 50 -46
33 -8 59 -81 46 -132 -9 -35 -58 -86 -74 -76 -21 13 -43 62 -37 83 9 28 35 20
48 -16 7 -18 8 -18 27 -1 26 23 25 43 -2 66 -50 44 -98 4 -102 -83 0 -10 -4
-18 -9 -18 -5 0 -4 -6 2 -14 7 -8 8 -17 4 -19 -17 -11 2 -217 25 -279 12 -30
22 -38 57 -44 31 -5 41 16 39 76 -1 25 5 63 14 85 18 45 69 126 88 138 7 4 19
13 26 20 12 12 70 39 82 39 3 0 25 6 49 13 24 7 79 13 123 13 70 0 86 -3 125
-27 24 -15 52 -30 61 -34 26 -9 47 18 44 56 -6 59 34 83 79 50 38 -28 89 -145
86 -198 -2 -32 -26 -65 -48 -65 -8 0 -26 9 -40 20 -44 35 -54 27 -48 -37 3
-32 7 -69 10 -83 3 -14 7 -36 10 -49 2 -12 9 -29 14 -35 11 -14 9 -35 -9 -81
-6 -16 -13 -55 -16 -85 -11 -138 -15 -164 -26 -178 -7 -8 -12 -18 -10 -21 7
-15 -55 -75 -97 -94 -36 -16 -67 -20 -141 -20 -137 0 -231 31 -283 94 l-27 33
39 38 c45 44 62 83 50 116 -10 25 -31 29 -49 7 -10 -12 -9 -20 4 -40 21 -32
20 -51 -1 -60 -66 -29 -103 23 -103 146 0 65 -14 82 -65 82 -52 0 -66 -17 -64
-81 2 -29 11 -69 20 -87 22 -40 19 -48 -56 -175 -27 -46 -49 -90 -47 -97 5
-22 -27 -15 -43 10 -8 13 -21 44 -29 69 -7 26 -23 60 -35 76 -29 41 -42 79
-47 137 -12 131 -2 221 26 248 26 23 24 73 -2 71 -10 -1 -18 1 -19 5 0 3 -2
15 -5 26 -2 11 -6 48 -8 83 -3 39 -12 76 -25 98 -12 19 -21 41 -21 49 0 7 21
26 48 41 26 15 49 30 52 34 3 4 15 13 28 19 70 37 111 85 110 130 -1 74 54
113 80 58z m1604 -107 c11 -22 14 -39 8 -55 -10 -26 -2 -41 24 -46 25 -5 56
-57 60 -101 4 -45 -20 -103 -47 -115 -36 -15 -58 -4 -78 40 l-18 42 5 -64 c4
-52 1 -70 -17 -105 -20 -37 -23 -57 -24 -196 -1 -85 -2 -163 -3 -173 -1 -10
-26 -43 -56 -73 -54 -55 -83 -103 -92 -151 -17 -91 -60 -74 -63 25 -1 43 -24
86 -77 146 -48 53 -51 66 -28 121 15 36 20 122 11 176 -7 38 -36 97 -51 102
-37 15 -53 -34 -50 -158 6 -270 5 -289 -16 -359 -47 -152 -142 -292 -215 -316
-49 -16 -116 -6 -137 20 -26 32 -24 104 3 131 17 17 29 19 61 15 23 -3 51 -12
62 -20 44 -28 56 26 31 144 -48 230 -51 408 -11 583 9 40 33 73 70 100 44 31
163 32 198 1 46 -42 53 -40 146 44 21 18 60 44 89 57 52 25 113 80 113 101 0
7 -9 14 -20 17 -25 7 -25 33 0 75 38 62 88 59 122 -8z m-2010 -132 c32 -27 33
-30 33 -105 0 -61 -5 -89 -24 -128 -52 -109 -56 -146 -56 -475 0 -231 2 -265
15 -261 30 7 96 11 116 6 57 -13 54 -151 -4 -217 -8 -10 -18 -15 -23 -12 -5 2
-25 -21 -46 -53 -61 -95 -70 -103 -123 -103 -54 0 -82 23 -82 66 0 33 29 51
74 46 3 -1 8 5 11 12 10 24 -23 71 -63 90 -59 28 -68 42 -47 74 31 50 45 87
52 142 9 67 13 500 5 500 -12 0 -166 -166 -180 -194 -26 -50 -17 -149 20 -233
17 -39 21 -42 62 -45 l43 -3 -1 -41 c0 -31 -11 -57 -43 -105 -23 -34 -47 -82
-54 -106 -14 -52 -26 -58 -66 -29 -19 15 -42 22 -63 20 -18 -1 -33 -3 -33 -4
0 -6 -66 -6 -69 -1 -3 4 -7 38 -10 76 -6 66 -8 83 -22 145 -3 14 -7 36 -10 49
-3 13 -9 32 -15 43 -5 10 -8 18 -5 18 16 0 -94 273 -115 286 -24 14 -42 -95
-43 -246 0 -107 13 -157 53 -203 16 -18 40 -53 55 -78 23 -40 24 -48 12 -59
-9 -6 -19 -9 -24 -6 -20 12 -65 14 -95 4 -46 -16 -82 -60 -85 -103 -3 -39 10
-40 36 -3 7 10 26 25 42 33 26 14 33 13 64 -2 103 -49 67 -223 -47 -223 -84 0
-174 108 -175 210 0 42 -12 84 -36 129 -44 85 -29 129 40 118 47 -8 53 9 49
148 -5 145 -15 336 -19 355 -1 8 -6 31 -10 51 -4 20 -29 63 -57 97 -59 73 -53
83 48 87 38 2 79 7 93 13 14 5 28 10 32 11 19 4 47 15 98 40 90 45 88 44 109
3 10 -20 35 -80 55 -132 20 -52 41 -104 46 -115 4 -11 16 -41 26 -68 19 -52
21 -52 75 8 15 17 45 50 68 74 54 59 68 101 47 145 -31 65 -23 73 80 81 67 6
134 31 134 52 0 7 -3 14 -7 14 -5 1 -21 3 -37 5 -50 5 -60 43 -23 85 46 53 72
57 119 17z m3490 10 c20 -24 20 -68 0 -119 -8 -20 -7 -33 4 -55 43 -83 -6
-164 -101 -164 -37 0 -66 28 -60 58 2 9 4 20 4 24 1 4 20 6 44 5 23 -1 44 2
47 8 7 15 -54 40 -92 38 -18 -1 -41 -2 -50 -2 -64 -3 -101 -130 -68 -231 8
-25 17 -37 26 -33 8 3 14 11 14 19 0 11 67 54 84 54 3 0 14 -9 25 -21 15 -17
19 -35 19 -92 -1 -80 -15 -107 -55 -107 -13 0 -34 11 -47 25 -25 26 -60 33
-72 13 -12 -18 -13 -169 -1 -201 18 -53 109 -74 167 -38 l31 19 -36 34 c-39
37 -39 56 0 82 54 35 109 25 118 -22 5 -24 16 -34 56 -52 57 -26 76 -55 67
-102 -6 -35 -51 -78 -81 -78 -21 0 -35 40 -23 63 5 10 8 25 6 33 -2 11 -10 8
-33 -13 -119 -108 -269 -104 -523 15 -40 18 -76 40 -79 49 -3 8 4 33 15 56 11
23 24 65 28 92 10 72 12 395 2 395 -4 0 -8 -4 -8 -8 0 -14 -83 -92 -98 -92
-22 0 -69 31 -82 55 -16 30 2 58 46 74 19 7 34 16 34 20 0 10 -59 2 -87 -11
-25 -12 -53 -65 -53 -100 0 -27 34 -64 65 -70 37 -6 45 -43 43 -223 0 -93 -5
-183 -11 -198 -5 -16 -31 -44 -58 -63 -59 -43 -82 -81 -110 -185 l-22 -82 -18
24 c-10 13 -19 32 -19 42 0 9 -4 17 -8 17 -5 0 -14 11 -20 25 -7 14 -37 59
-68 100 -30 40 -57 82 -58 92 -2 10 8 43 21 73 44 100 34 240 -22 296 -56 56
-66 29 -71 -191 -4 -239 -15 -327 -44 -384 -4 -9 -23 -46 -41 -83 -37 -77 -98
-152 -141 -174 -39 -20 -119 -27 -166 -14 -106 28 -64 173 53 185 21 2 51 -17
60 -38 14 -32 47 -28 59 6 17 46 -1 62 -71 62 -71 0 -106 20 -123 69 -14 44
-16 80 -6 129 13 59 69 76 113 35 27 -25 29 -46 8 -74 -34 -45 -1 -76 36 -33
16 19 18 34 14 111 -2 49 -7 93 -10 98 -9 15 -20 131 -18 205 1 75 31 180 64
226 53 74 216 74 283 0 23 -26 53 -27 58 -3 7 31 -10 72 -46 105 -38 36 -40
62 -6 92 23 21 83 35 102 24 42 -23 67 -18 105 23 48 51 98 76 146 74 41 -2
55 -12 62 -44 10 -52 85 -142 119 -142 23 0 66 40 106 99 22 32 25 33 69 27
154 -21 143 -20 210 -12 63 7 114 34 120 62 3 19 19 44 29 44 2 0 13 -10 24
-22z m713 -232 c65 -14 143 -61 185 -112 42 -52 62 -158 45 -245 -13 -67 -23
-180 -20 -224 8 -118 -80 -184 -269 -201 -101 -9 -138 -43 -107 -102 20 -37
51 -112 51 -123 0 -6 -33 -43 -74 -83 -62 -58 -91 -100 -111 -156 -1 -3 -6
-16 -12 -29 -9 -24 -10 -24 -23 10 -25 60 -107 173 -154 213 -51 43 -53 50
-30 104 19 41 21 51 28 102 3 19 5 35 6 35 1 0 4 38 8 85 10 139 6 389 -7 437
-2 7 -61 33 -61 27 0 -4 -6 -2 -12 3 -8 6 -25 7 -45 1 -41 -11 -35 -33 13 -48
37 -13 43 -33 19 -67 -22 -31 -60 -35 -86 -7 -31 33 -28 86 10 158 17 33 31
68 31 78 0 22 33 36 80 33 51 -3 136 19 237 61 140 58 206 70 298 50z m-1375
-1298 c0 -4 11 -8 24 -8 36 0 40 -16 9 -38 -24 -17 -27 -26 -31 -100 -5 -85 7
-136 34 -146 8 -3 14 -17 14 -31 0 -45 -76 -58 -114 -20 -21 21 -46 155 -47
253 -1 50 2 56 41 94 40 40 43 41 56 23 8 -10 14 -22 14 -27z m-1386 7 c31
-31 32 -32 7 -53 -19 -16 -45 -124 -33 -136 2 -3 5 -25 6 -51 1 -33 7 -49 23
-60 15 -11 21 -26 21 -58 1 -56 17 -97 37 -97 13 0 11 -6 -7 -31 -21 -27 -23
-42 -23 -139 0 -106 1 -109 29 -138 l28 -30 -23 -15 c-13 -8 -37 -14 -54 -12
-16 2 -35 3 -42 4 -31 3 -42 58 -44 225 l-1 109 36 33 c20 18 36 39 36 47 0 8
-18 22 -39 32 -27 12 -44 28 -52 49 -16 42 -21 262 -7 290 31 61 63 71 102 31z
m621 -54 c17 -8 48 -16 70 -17 22 -1 43 -2 48 -3 11 -2 8 -57 -5 -86 -13 -29
-52 -34 -67 -8 -18 33 -21 14 -30 -159 -1 -22 -28 -48 -49 -48 -27 0 -42 15
-49 46 -7 33 -11 305 -5 317 2 4 16 0 30 -9 15 -10 41 -25 57 -33z m-1182 24
c23 -9 53 -12 91 -9 53 5 56 4 65 -19 17 -43 -24 -137 -59 -137 -6 0 -10 -4
-10 -10 0 -5 11 -10 24 -10 14 0 31 -9 40 -21 14 -21 14 -28 -6 -81 -21 -57
-156 -72 -173 -19 -21 68 -29 321 -10 321 1 0 18 -7 38 -15z m379 3 c17 -13
21 -27 19 -66 -1 -29 -44 -50 -66 -32 -8 7 -13 16 -10 20 2 4 -7 12 -20 18
-16 8 -26 8 -31 1 -11 -18 4 -38 44 -58 46 -23 68 -54 76 -105 7 -41 -13 -89
-43 -105 -61 -33 -150 -6 -152 46 -1 16 -3 38 -4 51 -3 34 41 54 61 27 8 -10
14 -32 14 -48 0 -16 4 -26 10 -22 22 14 1 79 -47 146 -54 76 -54 118 2 132 41
10 132 7 147 -5z m561 -46 c20 -33 25 -63 26 -151 1 -69 7 -63 16 14 7 60 26
117 47 142 8 10 14 10 24 2 12 -9 13 -47 10 -190 -4 -142 -2 -182 9 -192 11
-10 11 -15 -1 -28 -19 -21 -25 -48 -28 -139 -4 -86 5 -124 34 -155 20 -21 20
-24 5 -39 -12 -12 -28 -15 -58 -12 -66 8 -76 26 -83 146 -6 114 -6 114 0 150
2 14 4 31 5 38 0 7 17 28 36 47 32 29 34 35 21 48 -9 8 -33 18 -55 22 -46 8
-73 25 -78 51 -2 11 -6 69 -9 129 -3 61 -6 115 -6 120 -4 64 47 62 85 -3z
m667 48 c0 -5 17 -12 38 -17 35 -7 48 -6 100 2 38 6 45 -25 40 -176 -2 -77 -7
-141 -10 -144 -3 -3 -15 -8 -27 -10 -30 -6 -40 26 -45 137 -2 49 -7 92 -11 96
-3 4 -5 3 -4 -3 6 -20 -13 -151 -26 -182 -14 -34 -44 -56 -62 -45 -20 13 -29
76 -26 182 2 58 3 116 3 129 0 12 3 27 6 32 7 12 24 12 24 -1z m-782 -178 c2
-126 0 -162 -10 -163 -52 -4 -129 2 -164 14 -43 15 -41 98 4 163 18 24 32 46
32 49 0 2 -12 5 -26 7 -34 4 -49 27 -40 61 7 29 18 32 126 32 l75 -1 3 -162z
m722 1 c0 -123 -3 -163 -12 -164 -40 -4 -127 3 -154 12 -26 8 -33 17 -39 45
-8 44 10 102 41 131 30 28 30 43 1 43 -31 0 -47 18 -47 52 0 34 28 43 135 43
l75 1 0 -163z m-1779 143 c14 -7 51 -13 83 -14 65 0 69 -2 69 -37 0 -51 -60
-90 -93 -60 -28 26 -37 12 -39 -62 -2 -93 -10 -131 -29 -138 -36 -13 -46 19
-49 153 -4 175 1 188 58 158z m1745 -380 c17 -13 18 -17 6 -48 -39 -96 -33
-232 10 -268 20 -15 21 -21 10 -44 -11 -24 -36 -34 -67 -26 -5 1 -16 3 -22 3
-35 1 -44 33 -49 168 -4 138 4 193 35 216 22 17 53 16 77 -1z m220 -11 c9 -12
8 -23 -5 -48 -12 -23 -16 -59 -16 -130 0 -90 2 -100 23 -117 25 -21 29 -65 6
-74 -28 -11 -79 -6 -101 9 -12 9 -27 31 -32 50 -12 45 -6 237 9 264 6 12 8 21
4 21 -4 0 5 11 20 25 30 28 72 28 92 0z m-481 -53 c35 3 40 6 40 28 0 30 26
34 32 5 2 -11 5 -95 7 -187 l3 -168 -41 -1 c-116 -2 -155 3 -167 23 -12 19 -3
101 15 138 9 19 32 46 51 60 19 14 35 29 35 33 0 5 -4 6 -9 3 -5 -3 -25 -8
-44 -11 -28 -5 -38 -2 -45 12 -7 15 -9 90 -3 126 0 5 20 -8 43 -28 36 -30 49
-35 83 -33z m-1431 2 c11 -2 35 5 53 16 18 11 34 16 34 12 8 -41 10 -72 12
-162 3 -137 -8 -228 -30 -253 -16 -17 -28 -18 -96 -14 -43 2 -80 7 -83 10 -3
3 18 17 48 31 29 14 46 26 38 27 -89 13 -88 8 -90 226 l-1 153 48 -21 c26 -11
57 -23 67 -25z m590 17 c20 -17 21 -65 0 -85 -23 -23 -49 -20 -68 9 -19 29
-36 33 -36 8 0 -9 20 -35 44 -57 24 -23 51 -55 60 -72 19 -38 14 -91 -12 -116
-19 -20 -95 -31 -146 -21 -52 11 -86 102 -51 137 26 25 65 2 65 -40 0 -11 7
-29 15 -40 14 -18 16 -18 29 -1 20 26 8 60 -52 148 -58 87 -70 123 -45 138 26
14 177 8 197 -8z m438 11 c23 -3 38 -59 24 -89 -17 -35 -32 -35 -66 -2 -18 18
-37 29 -45 25 -27 -10 -16 -25 44 -63 33 -20 62 -46 65 -58 16 -57 -4 -137
-38 -153 -29 -13 -117 -7 -145 9 -40 26 -60 93 -35 120 25 27 64 10 90 -39 12
-23 24 -36 27 -29 8 25 -12 79 -45 120 -63 77 -75 124 -38 150 17 12 86 16
162 9z m1074 -18 c54 6 65 4 71 -9 5 -14 7 -63 4 -87 -1 -5 0 -9 1 -10 3 -6
-23 -48 -30 -47 -23 4 -24 -4 -3 -20 17 -13 25 -30 26 -56 4 -56 -4 -73 -37
-84 -38 -13 -145 -14 -153 -2 -3 5 -7 80 -10 167 -5 170 -1 185 42 157 18 -12
38 -14 89 -9z m-1764 -16 c3 -11 3 -242 -1 -303 -1 -18 -7 -20 -78 -18 -125 4
-133 8 -133 76 0 47 19 94 54 132 27 29 31 36 19 34 -52 -8 -85 29 -64 70 11
19 20 21 105 21 66 0 95 -4 98 -12z m2646 -583 c40 -50 6 -134 -98 -243 -118
-124 -174 -130 -193 -22 -9 46 30 125 87 177 45 41 156 112 178 113 4 0 15
-11 26 -25z m-3834 0 c93 -27 229 -164 229 -231 0 -43 -30 -111 -53 -117 -31
-8 -135 86 -221 200 -49 64 -65 108 -54 143 8 24 29 25 99 5z m557 -200 c120
-30 148 -39 244 -74 122 -44 145 -74 75 -96 -31 -10 -88 -23 -100 -24 -8 0
-51 -7 -95 -15 -97 -17 -259 -15 -297 3 -31 16 -37 29 -45 91 -6 48 -17 76
-41 99 -12 13 -11 17 10 33 30 24 104 19 249 -17z m2903 15 c13 -10 13 -18 1
-58 -8 -26 -28 -75 -45 -110 l-30 -63 -123 6 c-143 7 -186 10 -247 21 -25 4
-54 8 -65 9 -11 1 -37 9 -57 19 -33 16 -36 21 -27 38 13 24 65 57 102 65 15 3
27 10 27 16 0 6 3 8 6 4 3 -3 18 -1 33 5 14 5 34 11 45 14 10 2 42 10 70 18
28 8 75 17 105 20 29 3 55 7 58 10 9 9 134 -2 147 -14z m-1522 -23 c59 -11 89
-44 63 -70 -17 -18 -167 -22 -225 -7 -65 18 -45 65 34 77 17 3 32 6 34 8 4 3
55 -1 94 -8z m-304 -193 c89 -26 150 -74 177 -138 22 -52 18 -82 -12 -116
l-28 -30 -42 23 c-71 38 -230 184 -258 238 -10 19 -11 29 -3 37 14 14 92 7
166 -14z m678 13 c17 -17 -40 -85 -150 -176 -49 -40 -172 -121 -185 -121 -16
0 -33 47 -34 90 -1 94 99 189 217 207 17 3 33 6 34 8 6 6 112 -1 118 -8z
m-358 -421 c13 -12 24 -34 26 -49 1 -15 5 -29 8 -32 10 -10 -2 -141 -18 -190
-9 -27 -28 -65 -42 -84 -15 -19 -30 -39 -34 -45 -11 -16 -86 64 -104 110 -41
109 -8 287 59 314 31 13 78 2 105 -24z m-319 -217 c-2 -68 6 -81 91 -139 110
-76 122 -99 63 -123 -93 -37 -212 18 -271 125 -47 85 -37 133 41 189 31 23 43
26 58 18 16 -8 19 -20 18 -70z m588 25 c81 -93 67 -192 -38 -256 -62 -39 -165
-60 -200 -42 -58 29 -46 67 36 109 77 41 95 62 99 121 6 76 21 105 51 101 15
-2 38 -16 52 -33z m-271 -360 c13 -9 25 -24 26 -33 5 -47 3 -58 -11 -75 -55
-65 -158 -46 -182 34 -8 27 -8 43 0 58 21 40 116 49 167 16z"/>
<path d="M2281 7478 c-15 -41 33 -137 113 -225 44 -48 61 -53 72 -20 12 37 5
87 -21 141 -31 65 -72 105 -120 116 -32 7 -37 6 -44 -12z"/>
<path d="M2833 7002 c-21 -7 -55 -35 -79 -64 -44 -55 -49 -393 -9 -552 23 -91
64 -120 130 -94 41 16 63 42 97 117 46 101 45 114 -17 124 -52 9 -79 24 -103
57 -20 26 -23 40 -19 86 6 74 33 101 82 84 28 -10 73 8 81 33 22 68 -1 152
-50 189 -27 20 -82 29 -113 20z"/>
<path d="M2139 6933 c-62 -38 -92 -131 -94 -293 -2 -196 43 -359 115 -410 27
-19 112 -31 126 -18 6 6 5 566 -1 618 -6 54 -22 88 -44 95 -12 3 -21 10 -21
14 0 14 -56 10 -81 -6z"/>
<path d="M4746 6881 c-39 -26 -64 -56 -91 -109 -31 -62 -41 -110 -44 -208 -3
-130 17 -156 124 -159 119 -3 185 68 187 200 2 122 -36 280 -71 289 -35 9 -79
4 -105 -13z"/>
<path d="M3792 6533 c-11 -10 -24 -31 -29 -48 -10 -30 -10 -304 0 -360 3 -16
8 -49 12 -72 4 -24 11 -45 16 -49 5 -3 7 -9 5 -13 -9 -14 39 -61 71 -70 26 -8
37 -6 55 9 19 15 23 27 22 77 -1 68 -22 119 -77 184 -45 55 -57 92 -44 139 12
46 24 60 52 60 40 0 54 11 61 46 7 36 -22 97 -52 108 -29 11 -72 6 -92 -11z"/>
<path d="M3262 4813 c-36 -18 -49 -50 -57 -142 -3 -36 -7 -67 -10 -69 -2 -3 0
-13 6 -23 5 -11 6 -19 2 -19 -14 0 -4 -273 12 -311 7 -19 47 -39 76 -39 23 0
61 18 71 34 10 14 27 97 33 161 7 75 14 127 21 158 6 30 2 33 -18 14 -102 -99
-161 -88 -163 32 -1 67 15 142 36 168 8 9 24 12 45 8 25 -4 32 -2 28 9 -10 26
-48 35 -82 19z"/>
<path d="M3320 4625 c-14 -17 14 -35 41 -28 18 5 27 32 12 34 -5 0 -16 2 -25
4 -9 2 -22 -3 -28 -10z"/>
<path d="M2370 3922 c0 -15 24 -32 46 -32 34 0 39 19 9 30 -32 12 -55 13 -55
2z"/>
<path d="M6477 4621 c-37 -22 -49 -66 -52 -192 -4 -194 19 -283 84 -326 46
-31 79 -30 91 3 23 60 1 148 -44 178 -35 23 -59 72 -59 123 0 52 24 83 63 83
28 0 40 15 40 52 0 29 -31 77 -55 85 -33 11 -39 11 -68 -6z"/>
<path d="M3333 3325 c0 -14 3 -28 8 -31 5 -3 9 9 9 25 0 17 -4 31 -9 31 -5 0
-8 -11 -8 -25z"/>
<path d="M3337 3221 c-3 -13 -2 -32 2 -44 8 -20 8 -20 13 4 2 14 2 34 -2 44
-6 17 -7 17 -13 -4z"/>
<path d="M4026 3218 c1 -13 3 -27 4 -33 1 -5 5 1 11 13 9 24 5 42 -10 42 -4 0
-7 -10 -5 -22z"/>
<path d="M4746 3218 c1 -13 3 -27 4 -33 1 -5 5 1 11 13 9 24 5 42 -10 42 -4 0
-7 -10 -5 -22z"/>
<path d="M4514 2783 c-14 -33 -13 -64 2 -70 18 -7 34 7 38 33 4 22 -10 54 -23
54 -5 0 -12 -8 -17 -17z"/>
<path d="M3100 2800 c0 -40 3 -70 7 -67 8 8 7 127 -1 135 -3 3 -6 -28 -6 -68z"/>
<path d="M5200 2747 c0 -20 4 -37 9 -37 10 0 9 56 -2 66 -4 4 -7 -9 -7 -29z"/>
<path d="M3366 2771 c-8 -13 -3 -61 6 -61 5 0 8 16 6 35 -2 37 -4 40 -12 26z"/>
</g>
</svg>
